<?xml version="1.0" encoding="UTF-8"?>
<svg width="512" height="512" viewBox="0 0 512 512" xmlns="http://www.w3.org/2000/svg">
  <!-- Background circle -->
  <circle cx="256" cy="256" r="256" fill="#0A0E27"/>
  
  <!-- Shield outline -->
  <path d="M256 64 L400 128 L400 288 C400 352 352 416 256 448 C160 416 112 352 112 288 L112 128 Z" 
        fill="none" stroke="#00D9FF" stroke-width="8" stroke-linejoin="round"/>
  
  <!-- Shield fill gradient -->
  <defs>
    <linearGradient id="shieldGradient" x1="0%" y1="0%" x2="0%" y2="100%">
      <stop offset="0%" style="stop-color:#1E3A8A;stop-opacity:0.8" />
      <stop offset="100%" style="stop-color:#0A0E27;stop-opacity:0.9" />
    </linearGradient>
  </defs>
  <path d="M256 72 L392 132 L392 288 C392 348 348 408 256 440 C164 408 120 348 120 288 L120 132 Z" 
        fill="url(#shieldGradient)"/>
  
  <!-- Letter "B" stylized as security lock -->
  <g fill="#00D9FF">
    <!-- B top loop -->
    <path d="M200 180 L280 180 C300 180 320 195 320 215 C320 230 310 240 300 245 
             C315 250 325 265 325 285 C325 310 305 325 280 325 L200 325 Z
             M220 200 L220 235 L275 235 C285 235 295 228 295 217 C295 207 285 200 275 200 Z
             M220 255 L220 305 L278 305 C290 305 300 295 300 280 C300 265 290 255 278 255 Z"
          stroke="#00D9FF" stroke-width="2"/>
  </g>
  
  <!-- Security elements - lock clasp -->
  <circle cx="256" cy="200" r="8" fill="#00FF88" opacity="0.8"/>
  <circle cx="256" cy="280" r="8" fill="#00FF88" opacity="0.8"/>
  
  <!-- Accent lines for tech feel -->
  <line x1="140" y1="160" x2="180" y2="160" stroke="#00FF88" stroke-width="3" opacity="0.6"/>
  <line x1="332" y1="160" x2="372" y2="160" stroke="#00FF88" stroke-width="3" opacity="0.6"/>
  <line x1="140" y1="340" x2="180" y2="340" stroke="#00FF88" stroke-width="3" opacity="0.6"/>
  <line x1="332" y1="340" x2="372" y2="340" stroke="#00FF88" stroke-width="3" opacity="0.6"/>
</svg>
